<?xml version="1.0" encoding="UTF-8" standalone="no"?>
<!-- Created with Inkscape (http://www.inkscape.org/) -->

<svg
   xmlns:dc="http://purl.org/dc/elements/1.1/"
   xmlns:cc="http://creativecommons.org/ns#"
   xmlns:rdf="http://www.w3.org/1999/02/22-rdf-syntax-ns#"
   xmlns:svg="http://www.w3.org/2000/svg"
   xmlns="http://www.w3.org/2000/svg"
   xmlns:sodipodi="http://sodipodi.sourceforge.net/DTD/sodipodi-0.dtd"
   xmlns:inkscape="http://www.inkscape.org/namespaces/inkscape"
   version="1.1"
   id="svg2"
   xml:space="preserve"
   width="393.07333"
   height="316.33411"
   viewBox="0 0 393.07334 316.3341"
   sodipodi:docname="banner_inverse_logo.svg"
   inkscape:version="0.92.1 r"><metadata
     id="metadata8"><rdf:RDF><cc:Work
         rdf:about=""><dc:format>image/svg+xml</dc:format><dc:type
           rdf:resource="http://purl.org/dc/dcmitype/StillImage" /><dc:title></dc:title></cc:Work></rdf:RDF></metadata><defs
     id="defs6" /><sodipodi:namedview
     pagecolor="#ffffff"
     bordercolor="#666666"
     borderopacity="1"
     objecttolerance="10"
     gridtolerance="10"
     guidetolerance="10"
     inkscape:pageopacity="0"
     inkscape:pageshadow="2"
     inkscape:window-width="1148"
     inkscape:window-height="843"
     id="namedview4"
     showgrid="false"
     inkscape:zoom="2.1338199"
     inkscape:cx="196.53667"
     inkscape:cy="176.91278"
     inkscape:window-x="1819"
     inkscape:window-y="107"
     inkscape:window-maximized="0"
     inkscape:current-layer="layer2"
     fit-margin-top="0"
     fit-margin-left="0"
     fit-margin-right="0"
     fit-margin-bottom="0" /><g
     inkscape:groupmode="layer"
     id="layer2"
     inkscape:label="spanner"
     style="display:inline"><g
       style="display:inline"
       id="g112"
       transform="matrix(1.3333333,0,0,-1.3333333,0.11720493,94.081306)"><path
         d="m 0,0 131.956,33.264 c 5.567,-6.431 14.551,-9.426 23.267,-6.929 8.654,2.48 14.667,9.694 16.04,18.023 l -19.596,-5.615 -7.681,7.826 2.056,11.806 19.038,5.456 c -5.607,5.683 -14.064,8.206 -22.279,5.852 -8.715,-2.497 -14.75,-9.796 -16.066,-18.2 L 0,20.409 Z"
         style="fill:#66aad6;fill-opacity:1;fill-rule:nonzero;stroke:none"
         id="path114"
         inkscape:connector-curvature="0" /></g></g><g
     inkscape:groupmode="layer"
     id="layer3"
     inkscape:label="cable"
     style="display:inline"><g
       style="display:inline"
       id="g104"
       transform="matrix(1.3333333,0,0,-1.3333333,392.93173,220.65944)"><path
         d="m 0,0 -223.16,-48.232 1.502,-6.844 L 0,-7.171 Z"
         style="fill:#66aad6;fill-opacity:1;fill-rule:nonzero;stroke:none"
         id="path106"
         inkscape:connector-curvature="0" /></g></g><g
     inkscape:groupmode="layer"
     id="layer4"
     inkscape:label="spark"
     style="display:inline"><g
       style="display:inline"
       id="g108"
       transform="matrix(1.3333333,0,0,-1.3333333,104.20067,288.57277)"><path
         d="M 0,0 13.203,-5.89 3.245,-4.157 11.963,-14.314 0.296,-5.7 -1.266,-20.821 -3.775,-6.087 -13.403,-19.883 -6.568,-4.661 -25.789,-6.992 -7.207,0.486 -20.981,11.632 -6.419,3.981 -13.637,23.474 -3.123,4.848 1.6,16.17 Z"
         style="fill:#231f20;fill-opacity:1;fill-rule:nonzero;stroke:none"
         id="path110"
         inkscape:connector-curvature="0" /></g></g><g
     inkscape:groupmode="layer"
     id="layer5"
     inkscape:label="A"
     style="display:inline"><g
       style="display:inline"
       id="g100"
       transform="matrix(1.3333333,0,0,-1.3333333,178.328,114.27784)"><path
         d="m 0,0 -7.202,-46.92 34.247,7.626 z m -16.842,19.646 25.625,5.706 70.568,-95.984 -26.907,-5.992 -13.045,19.091 -49.969,-11.127 -4.306,-28.974 -25.652,-5.713 z"
         style="fill:#80cc28;fill-opacity:1;fill-rule:nonzero;stroke:none"
         id="path102"
         inkscape:connector-curvature="0" /></g><path
       style="fill:#ffffff;fill-opacity:1;stroke-width:0.46864313"
       d="m 124.6504,251.49438 c 0.0165,-1.38867 31.39396,-162.860232 31.69889,-163.125867 0.75153,-0.654685 33.5085,-7.645666 33.89314,-7.233462 1.13875,1.220361 92.79331,126.230909 92.90583,126.717189 0.20046,0.86633 -34.34842,8.54994 -35.08046,7.80182 -0.29431,-0.30078 -4.16911,-5.88845 -8.61066,-12.41704 -4.44155,-6.5286 -8.32914,-11.96749 -8.63908,-12.08643 -0.44397,-0.17036 -66.28285,14.18541 -66.67121,14.53726 -0.0552,0.05 -1.38687,8.72342 -2.95934,19.27431 -1.57247,10.55089 -2.90544,19.22985 -2.96216,19.28657 -0.0567,0.0567 -6.84426,1.60093 -15.08342,3.43157 -8.23916,1.83064 -15.77113,3.50558 -16.73771,3.72209 -0.96657,0.21651 -1.75579,0.25791 -1.75382,0.092 z m 67.94966,-79.77481 c 11.98555,-2.65168 21.85339,-4.86138 21.92853,-4.91044 0.0751,-0.0491 -8.01456,-11.93737 -17.97712,-26.41845 -9.96257,-14.48108 -18.18947,-26.25352 -18.28201,-26.16098 -0.18307,0.18307 -9.57019,61.16391 -9.57019,62.1701 0,0.39509 0.37659,0.53001 1.05444,0.37779 0.57995,-0.13024 10.86081,-2.40635 22.84635,-5.05802 z"
       id="path3962"
       inkscape:connector-curvature="0" /></g><g
     inkscape:groupmode="layer"
     id="layer6"
     inkscape:label="KE"
     style="display:inline"><g
       style="display:inline"
       id="g116"
       transform="matrix(1.3333333,0,0,-1.3333333,158.47067,244.68944)"><path
         d="m 0,0 -60.882,48.177 34.783,66.706 -29.749,-6.625 -34.115,-65.576 -12.301,55.24 -16.589,-3.7 V 55.366 l 17.427,-77.952 24.768,5.516 -12.735,57.189 57.728,-47.17 z"
         style="fill:#231f20;fill-opacity:1;fill-rule:nonzero;stroke:none"
         id="path118"
         inkscape:connector-curvature="0" /></g><g
       style="display:inline"
       id="g120"
       transform="matrix(1.3333333,0,0,-1.3333333,393.07333,167.1609)"><path
         d="m 0,0 -36.673,-8.211 c -9.945,-2.214 -17.548,-1.626 -22.783,1.771 -5.261,3.392 -9.001,10.071 -11.269,20 l 56.034,12.773 -4.427,19.881 -55.889,-12.657 c -1.534,9.063 -0.488,16.28 3.054,21.632 3.57,5.358 9.825,9.032 18.711,11.011 l 40.406,8.997 -4.427,19.882 -40.869,-9.101 c -18.83,-4.193 -31.647,-12.083 -38.478,-23.676 -6.824,-11.62 -7.99,-27.516 -3.492,-47.716 2.314,-10.391 5.804,-19.018 10.458,-25.828 4.68,-6.804 10.516,-11.876 17.56,-15.205 5.401,-2.609 10.919,-4.079 16.506,-4.448 5.581,-0.344 12.98,0.497 22.137,2.536 L 0,-20.868 Z"
         style="fill:#231f20;fill-opacity:1;fill-rule:nonzero;stroke:none"
         id="path122"
         inkscape:connector-curvature="0" /></g></g></svg>