<?xml version="1.0" encoding="UTF-8" standalone="no"?>
<!-- Created with Inkscape (http://www.inkscape.org/) -->

<svg
   xmlns:dc="http://purl.org/dc/elements/1.1/"
   xmlns:cc="http://creativecommons.org/ns#"
   xmlns:rdf="http://www.w3.org/1999/02/22-rdf-syntax-ns#"
   xmlns:svg="http://www.w3.org/2000/svg"
   xmlns="http://www.w3.org/2000/svg"
   xmlns:sodipodi="http://sodipodi.sourceforge.net/DTD/sodipodi-0.dtd"
   xmlns:inkscape="http://www.inkscape.org/namespaces/inkscape"
   version="1.1"
   id="svg2"
   xml:space="preserve"
   width="393.07333"
   height="334.68933"
   viewBox="0 0 393.07333 334.68933"
   sodipodi:docname="inverse_logo_square.svg"
   inkscape:version="0.92.1 r"><metadata
     id="metadata8"><rdf:RDF><cc:Work
         rdf:about=""><dc:format>image/svg+xml</dc:format><dc:type
           rdf:resource="http://purl.org/dc/dcmitype/StillImage" /><dc:title></dc:title></cc:Work></rdf:RDF></metadata><defs
     id="defs6"><clipPath
       clipPathUnits="userSpaceOnUse"
       id="clipPath26"><path
         d="M 0,841.89 H 595.28 V 0 H 0 Z"
         id="path24"
         inkscape:connector-curvature="0" /></clipPath></defs><sodipodi:namedview
     pagecolor="#ffffff"
     bordercolor="#666666"
     borderopacity="1"
     objecttolerance="10"
     gridtolerance="10"
     guidetolerance="10"
     inkscape:pageopacity="0"
     inkscape:pageshadow="2"
     inkscape:window-width="955"
     inkscape:window-height="924"
     id="namedview4"
     showgrid="false"
     fit-margin-top="0"
     fit-margin-left="0"
     fit-margin-right="0"
     fit-margin-bottom="0"
     inkscape:zoom="0.59465202"
     inkscape:cx="199.12058"
     inkscape:cy="36.664005"
     inkscape:window-x="1956"
     inkscape:window-y="58"
     inkscape:window-maximized="0"
     inkscape:current-layer="g10" /><g
     id="g10"
     inkscape:groupmode="layer"
     inkscape:label="inverse logo square"
     transform="matrix(1.3333333,0,0,-1.3333333,-202.48919,859.28531)"><path
       d="M 446.566,393.447 H 151.955 v 251.017 h 294.611 z"
       style="fill:#ffffff;fill-opacity:1;fill-rule:nonzero;stroke:none"
       id="path98"
       inkscape:connector-curvature="0" /><g
       id="g100"
       transform="translate(285.6129,551.6733)"><path
         d="m 0,0 -7.202,-46.92 34.247,7.626 z m -16.842,19.646 25.625,5.706 70.568,-95.984 -26.907,-5.992 -13.045,19.091 -49.969,-11.127 -4.306,-28.974 -25.652,-5.713 z"
         style="fill:#80cc28;fill-opacity:1;fill-rule:nonzero;stroke:none"
         id="path102"
         inkscape:connector-curvature="0" /></g><g
       id="g104"
       transform="translate(446.5657,471.8871)"><path
         d="m 0,0 -223.16,-48.232 1.502,-6.844 L 0,-7.171 Z"
         style="fill:#66aad6;fill-opacity:1;fill-rule:nonzero;stroke:none"
         id="path106"
         inkscape:connector-curvature="0" /></g><g
       id="g108"
       transform="translate(230.0174,420.9521)"><path
         d="M 0,0 13.203,-5.89 3.245,-4.157 11.963,-14.314 0.296,-5.7 -1.266,-20.821 -3.775,-6.087 -13.403,-19.883 -6.568,-4.661 -25.789,-6.992 -7.207,0.486 -20.981,11.632 -6.419,3.981 -13.637,23.474 -3.123,4.848 1.6,16.17 Z"
         style="fill:#231f20;fill-opacity:1;fill-rule:nonzero;stroke:none"
         id="path110"
         inkscape:connector-curvature="0" /></g><g
       id="g112"
       transform="translate(151.9548,566.8207)"><path
         d="m 0,0 131.956,33.264 c 5.567,-6.431 14.551,-9.426 23.267,-6.929 8.654,2.48 14.667,9.694 16.04,18.023 l -19.596,-5.615 -7.681,7.826 2.056,11.806 19.038,5.456 c -5.607,5.683 -14.064,8.206 -22.279,5.852 -8.715,-2.497 -14.75,-9.796 -16.066,-18.2 L 0,20.409 Z"
         style="fill:#66aad6;fill-opacity:1;fill-rule:nonzero;stroke:none"
         id="path114"
         inkscape:connector-curvature="0" /></g><g
       id="g116"
       transform="translate(270.7199,453.8646)"><path
         d="m 0,0 -60.882,48.177 34.783,66.706 -29.749,-6.625 -34.115,-65.576 -12.301,55.24 -16.589,-3.7 V 55.366 l 17.427,-77.952 24.768,5.516 -12.735,57.189 57.728,-47.17 z"
         style="fill:#231f20;fill-opacity:1;fill-rule:nonzero;stroke:none"
         id="path118"
         inkscape:connector-curvature="0" /></g><g
       id="g120"
       transform="translate(446.6719,512.011)"><path
         d="m 0,0 -36.673,-8.211 c -9.945,-2.214 -17.548,-1.626 -22.783,1.771 -5.261,3.392 -9.001,10.071 -11.269,20 l 56.034,12.773 -4.427,19.881 -55.889,-12.657 c -1.534,9.063 -0.488,16.28 3.054,21.632 3.57,5.358 9.825,9.032 18.711,11.011 l 40.406,8.997 -4.427,19.882 -40.869,-9.101 c -18.83,-4.193 -31.647,-12.083 -38.478,-23.676 -6.824,-11.62 -7.99,-27.516 -3.492,-47.716 2.314,-10.391 5.804,-19.018 10.458,-25.828 4.68,-6.804 10.516,-11.876 17.56,-15.205 5.401,-2.609 10.919,-4.079 16.506,-4.448 5.581,-0.344 12.98,0.497 22.137,2.536 L 0,-20.868 Z"
         style="fill:#231f20;fill-opacity:1;fill-rule:nonzero;stroke:none"
         id="path122"
         inkscape:connector-curvature="0" /></g></g></svg>