<?xml version="1.0" encoding="UTF-8" standalone="no"?>
<!-- Created with Inkscape (http://www.inkscape.org/) -->

<svg
   xmlns:dc="http://purl.org/dc/elements/1.1/"
   xmlns:cc="http://creativecommons.org/ns#"
   xmlns:rdf="http://www.w3.org/1999/02/22-rdf-syntax-ns#"
   xmlns:svg="http://www.w3.org/2000/svg"
   xmlns="http://www.w3.org/2000/svg"
   xmlns:sodipodi="http://sodipodi.sourceforge.net/DTD/sodipodi-0.dtd"
   xmlns:inkscape="http://www.inkscape.org/namespaces/inkscape"
   version="1.1"
   id="svg10"
   width="622.66669"
   height="512"
   viewBox="0 0 622.66669 512"
   sodipodi:docname="logo.svg"
   inkscape:version="0.92.1 r">
  <metadata
     id="metadata16">
    <rdf:RDF>
      <cc:Work
         rdf:about="">
        <dc:format>image/svg+xml</dc:format>
        <dc:type
           rdf:resource="http://purl.org/dc/dcmitype/StillImage" />
        <dc:title />
      </cc:Work>
    </rdf:RDF>
  </metadata>
  <defs
     id="defs14" />
  <sodipodi:namedview
     pagecolor="#ffffff"
     bordercolor="#666666"
     borderopacity="1"
     objecttolerance="10"
     gridtolerance="10"
     guidetolerance="10"
     inkscape:pageopacity="0"
     inkscape:pageshadow="2"
     inkscape:window-width="1600"
     inkscape:window-height="841"
     id="namedview12"
     showgrid="false"
     inkscape:zoom="1.6074219"
     inkscape:cx="237.93628"
     inkscape:cy="257.99851"
     inkscape:window-x="0"
     inkscape:window-y="30"
     inkscape:window-maximized="1"
     inkscape:current-layer="g20" />
  <g
     id="g20">
    <path
       style="fill:#9fafd7;stroke-width:1.33333337"
       d="m 162.03597,504.05819 c -0.4813,-0.77876 -1.63179,-5.1256 -2.55666,-9.65966 -0.92486,-4.53405 -2.32888,-8.4595 -3.12002,-8.72321 -0.79115,-0.26372 -4.0229,3.45145 -7.18166,8.25593 -9.65825,14.69022 -11.88233,10.61707 -4.4064,-8.06982 1.91758,-4.79316 3.22282,-8.9785 2.90056,-9.30076 -0.32226,-0.32226 -7.63658,0.38341 -16.25407,1.56816 -11.98475,1.64768 -16.03051,1.78628 -17.20959,0.58953 -2.30328,-2.33777 1.25976,-4.43031 17.23535,-10.12212 7.63942,-2.72177 13.88986,-5.62725 13.88986,-6.4566 0,-0.82935 -4.45359,-4.99639 -9.89687,-9.26009 -5.44328,-4.26371 -10.22445,-8.60586 -10.62482,-9.64922 -1.27236,-3.31569 3.96283,-2.1408 12.34128,2.76967 6.84461,4.01152 10.84708,5.60707 10.84708,4.32409 0,-0.18841 -2.67004,-6.89417 -5.93343,-14.90169 -3.26339,-8.00752 -5.56712,-15.15184 -5.1194,-15.87627 1.1696,-1.89245 6.17108,4.38276 13.18504,16.54291 3.34917,5.80647 6.56557,10.85151 7.14757,11.2112 0.58199,0.35969 2.6361,-2.9844 4.56466,-7.43131 4.60105,-10.60912 6.82222,-9.87462 6.82222,2.25596 v 9.20844 l 5.5306,-0.23893 c 3.04183,-0.13147 14.14183,-2.10812 24.66667,-4.39269 10.52484,-2.28458 26.33607,-5.67002 35.13607,-7.5232 8.8,-1.85319 19.6,-4.20555 24,-5.22746 4.4,-1.0219 11.3,-2.43506 15.33333,-3.14034 4.03334,-0.70528 14.53334,-2.80636 23.33334,-4.66906 8.8,-1.8627 28.9,-6.07454 44.66667,-9.35965 72.3048,-15.06528 87.07251,-18.15728 102.66667,-21.49596 9.16666,-1.96256 18.16666,-3.86953 20,-4.23771 1.83333,-0.36816 13.53333,-2.69406 26,-5.16865 12.46667,-2.47459 34.06667,-6.93025 48,-9.90148 13.93333,-2.97121 28.03333,-5.95147 31.33333,-6.62279 3.3,-0.67132 14.70001,-3.09044 25.33334,-5.37582 10.63333,-2.28539 21.28333,-4.49423 23.66667,-4.90855 l 4.33333,-0.75328 v 9.33111 9.3311 l -6.33333,1.35694 c -3.48334,0.7463 -15.03334,3.24718 -25.66667,5.5575 -31.41534,6.82564 -73.42114,15.58202 -211.33334,44.05375 -11,2.27093 -36.8,7.68335 -57.33334,12.02757 -20.53333,4.34424 -49.33333,10.36163 -64,13.37198 -51.57967,10.58677 -70.67902,14.85966 -71.9457,16.09565 -0.80908,0.78947 -0.17112,2.02404 1.73632,3.36005 4.48488,3.14135 2.88682,5.19322 -3.67564,4.71939 l -5.68502,-0.41048 5.51656,6.97897 c 8.03502,10.16508 5.17982,11.46014 -6.08811,2.7614 -4.91099,-3.79122 -9.27519,-6.54702 -9.69823,-6.12398 -0.42304,0.42302 -1.08213,5.93461 -1.46466,12.24796 -0.65051,10.73592 -2.3602,14.80196 -4.65956,11.08152 z M 32.918767,435 c -1.079216,-3.48333 -3.830895,-14.43333 -6.114842,-24.33333 -2.283945,-9.9 -9.065172,-38.4 -15.069392,-63.33334 L 0.81776978,302 0.38523589,244.66667 -0.04729799,187.33333 12.309685,184.98008 c 19.444428,-3.70296 19.896635,-3.5456 22.088263,7.68659 1.635087,8.37988 14.767158,65.54829 20.826905,90.66666 2.987543,12.38372 1.514728,14.54626 35.41506,-52 33.550967,-65.86045 35.353167,-69.14721 38.876867,-70.90169 1.73244,-0.86259 15.44989,-4.23187 30.48323,-7.48728 21.53862,-4.66411 27.70322,-5.57697 29.07809,-4.30593 1.41692,1.30992 -0.99741,6.9756 -12.84963,30.15394 -28.70173,56.12948 -54.89513,108.29662 -54.89513,109.32987 0,0.57805 8.25,7.50651 18.33333,15.39655 10.08334,7.89004 20.16292,15.87605 22.39907,17.7467 2.23616,1.87064 6.43616,5.27751 9.33333,7.5708 2.89719,2.29331 8.5676,6.80076 12.60094,10.01658 15.68296,12.50418 18.81254,14.77902 19.45216,14.13941 0.36438,-0.36439 1.85724,-7.48672 3.31745,-15.8274 1.46021,-8.34068 4.81049,-27.46488 7.44507,-42.49821 2.63457,-15.03334 5.28292,-30.33334 5.8852,-34 0.60229,-3.66667 2.65992,-15.36667 4.57251,-26 3.81098,-21.18786 6.6929,-37.57187 12.30497,-69.95503 4.23637,-24.44507 3.19556,-23.08655 20.35597,-26.56976 5.5,-1.11639 15.64731,-3.29564 22.54956,-4.84278 6.90227,-1.54714 13.88826,-2.47699 15.52442,-2.06634 1.77068,0.44441 7.55933,6.82259 14.30057,15.75693 16.31966,21.62892 41.67539,54.95736 48.92304,64.30612 3.42712,4.42064 9.18715,11.873 12.8001,16.5608 3.61294,4.6878 9.16953,11.8878 12.34796,16 3.17844,4.1122 8.07265,10.47672 10.87602,14.14339 2.80338,3.66667 10.85163,14.16667 17.88501,23.33333 30.81765,40.16494 40.79333,53.53706 40.79333,54.68231 0,2.26349 -4.63145,3.7352 -27.36724,8.69636 -22.47239,4.90367 -27.00299,5.53204 -30.42327,4.21956 -0.97929,-0.3758 -7.67704,-9.13913 -14.88388,-19.47408 -14.34229,-20.56751 -14.43159,-20.6278 -25.83759,-17.44575 -2.65174,0.73979 -20.12136,4.64492 -38.82136,8.67808 -46.66176,10.06384 -51.6778,11.31539 -53.33013,13.30634 -1.71604,2.06769 -4.61436,20.85102 -6.43679,41.71524 -0.72277,8.27458 -2.01235,15.88602 -2.86573,16.91429 -0.85339,1.02827 -3.46015,2.26543 -5.79282,2.74924 -2.33265,0.48381 -16.36289,3.52239 -31.17829,6.75237 -14.8154,3.22999 -28.6154,5.8675 -30.66667,5.86111 -3.9634,-0.012 -17.12523,-10.38868 -87.292068,-68.81829 -18.826037,-15.6769 -34.796808,-28.50344 -35.490602,-28.50344 -1.234544,0 5.250183,30.11402 15.647969,72.66666 8.048931,32.94002 10.199551,44.40558 8.624654,45.98047 -1.090382,1.09039 -47.836201,12.01953 -51.409566,12.01953 -0.510943,0 -1.811983,-2.85 -2.8912,-6.33333 z M 302.679,274.09009 c 29.65737,-6.41529 31.98768,-7.07006 31.98768,-8.98785 0,-0.70352 -4.06425,-6.78933 -9.03168,-13.52401 -4.96743,-6.7347 -16.765,-23.21238 -26.21683,-36.61707 -9.45184,-13.40468 -17.83731,-24.15477 -18.63439,-23.88908 -1.59678,0.53225 -2.47908,5.47044 -5.40669,30.26125 -4.88037,41.32668 -6.161,51.11103 -6.83171,52.19627 -1.4669,2.37351 0.99623,6.4704 3.89014,6.4704 1.60734,0 15.21692,-2.65945 30.24348,-5.90991 z m 199.32102,62.37962 c -45.07067,-9.36842 -73.80946,-37.93792 -89.25814,-88.73243 -14.21879,-46.75067 -12.78719,-89.079 3.89184,-115.07061 6.93451,-10.80634 21.37307,-23.3708 34.77198,-30.25864 14.32857,-7.36575 26.86314,-11.419229 52.59432,-17.008162 10.63333,-2.309609 25.93333,-5.649509 34,-7.422 35.44903,-7.789219 43.37199,-9.139215 44.8664,-7.644805 2.09487,2.094876 11.7969,37.457617 10.91051,39.767527 -0.40575,1.05733 -2.02153,2.20005 -3.59064,2.53937 -1.56912,0.33931 -19.95294,4.26542 -40.85294,8.72468 -47.23577,10.0783 -52.21388,11.3565 -60.41519,15.51241 -9.5205,4.82442 -18.78778,14.03814 -22.30012,22.17127 -3.30556,7.65432 -4.80001,21.31157 -3.37318,30.82633 0.81725,5.44984 1.2962,6.12535 4.34298,6.12535 3.25703,0 25.18707,-4.50116 42.41218,-8.70513 4.4,-1.07388 18.2,-4.13031 30.66667,-6.79207 12.46666,-2.66176 26.78105,-5.71941 31.80973,-6.79479 5.84003,-1.24886 9.60539,-1.49289 10.4228,-0.67548 0.70384,0.70384 3.6182,9.9093 6.47635,20.45656 4.04303,14.91979 4.83713,19.50812 3.5772,20.6692 -1.81275,1.67054 -6.93459,3.00138 -32.95275,8.56232 -37.18291,7.9472 -82.92226,18.42386 -83.66106,19.16266 -1.20789,1.20789 2.2124,11.28254 7.18048,21.1505 9.08707,18.04936 20.06783,25.09435 40.54962,26.01563 13.63099,0.61312 16.11739,0.208 63.93096,-10.41663 13.56667,-3.01464 26.91667,-5.81928 29.66667,-6.23253 l 5,-0.75136 v 23.50889 c 0,12.9299 -0.33824,23.5089 -0.75165,23.5089 -0.41342,0 -16.16342,3.36416 -35,7.47592 -18.83659,4.11174 -39.34835,8.30946 -45.58169,9.32825 -10.48932,1.7144 -33.12545,2.28924 -39.33333,0.99887 z M 0,128 V 104 H 3.0903377 C 6.5324102,104 71.645956,88.844096 134.66667,73.374141 c 12.1,-2.970236 33.7,-8.162854 48,-11.53915 35.2338,-8.318866 56.18827,-13.35084 67.27529,-16.155396 l 9.27529,-2.346262 3.20717,-8.418406 c 7.3202,-19.214555 24.11444,-30.3334189 45.57559,-30.1739583 11.18775,0.083127 17.98483,1.9118449 26.31731,7.0805293 10.71713,6.647901 9.03065,9.080073 -9.37852,13.525401 -22.97568,5.548012 -22.81982,5.41201 -24.4874,21.366634 l -0.84815,8.114594 5.86505,6.021846 c 3.22578,3.312016 6.89022,6.58351 8.14321,7.269986 1.59785,0.87542 7.24224,-0.150611 18.90158,-3.435911 C 341.65599,62.107821 350.39964,60 351.94345,60 c 10.11658,0 -0.61113,22.466985 -15.35781,32.163793 -8.83389,5.8088 -21.12941,8.609567 -32.1238,7.317394 -8.97096,-1.054362 -14.72019,-3.380027 -25.17399,-10.183342 l -8.04548,-5.23599 -65.95452,16.448295 c -36.27498,9.04656 -83.35451,20.74158 -104.62118,25.98893 -21.266667,5.24736 -52.466668,13.12416 -69.333335,17.50401 -16.866668,4.37987 -30.81666831,7.97092 -31.00000165,7.98015 C 0.15000001,151.99245 0,141.2 0,128 Z M 620.28172,24.401249 C 619.44097,11.421937 619.06626,0.48931348 619.44905,0.10653032 621.63632,-2.0807423 622.62816,5.8484529 622.64628,25.666667 622.65694,37.95 622.47401,48 622.23852,48 c -0.2355,0 -1.11606,-10.619437 -1.9568,-23.598751 z"
       id="path34"
       inkscape:connector-curvature="0" />
    <path
       style="fill:#97a4a1;stroke-width:1.33333337"
       d="m 161.55621,496.0662 c -0.85591,-2.45527 -1.5562,-5.23553 -1.5562,-6.17836 0,-3.64108 -2.64722,-8.47828 -4.294,-7.84635 -0.94199,0.36148 -3.4163,3.35002 -5.49846,6.6412 -3.46209,5.4724 -7.32253,8.29935 -5.89562,4.31731 6.95336,-19.40475 7.07428,-19.13168 -7.56992,-17.09485 -20.98721,2.91905 -22.13745,1.1403 -3.92417,-6.06838 7.04981,-2.79025 13.13679,-5.90438 13.52663,-6.9203 0.42575,-1.10947 -2.43005,-4.69848 -7.15117,-8.98722 -8.62259,-7.83289 -7.96091,-9.04778 2.14004,-3.92925 3.61791,1.83333 6.89796,3.33333 7.28901,3.33333 1.4099,0 0.6507,-3.27482 -2.70212,-11.6555 -4.98332,-12.45636 -3.58072,-14.75608 2.64971,-4.3445 5.58423,9.33175 8.62211,13.33334 10.12224,13.33334 0.52004,0 1.97668,-2.7 3.23696,-6 1.26028,-3.3 2.8418,-6 3.51448,-6 0.67268,0 1.22305,3.31882 1.22305,7.37517 0,5.17372 0.57054,7.59412 1.91136,8.10864 1.05124,0.4034 8.10124,-0.5526 15.66667,-2.12444 25.05593,-5.20581 44.07044,-9.19329 76.42198,-16.02627 17.6,-3.7173 49.1,-10.31172 70,-14.65426 20.9,-4.34255 48.2,-10.0331 60.66667,-12.64564 39.20891,-8.21675 60.44672,-12.62736 90,-18.69099 29.91418,-6.13767 134.94503,-28.19161 139.00001,-29.18665 2.01586,-0.49467 2.33333,0.45934 2.33333,7.01178 0,6.93863 -0.25956,7.60586 -3.04859,7.83668 -1.67672,0.13876 -10.22672,1.80778 -19,3.70891 -29.83924,6.46605 -112.99594,23.88627 -136.61808,28.61965 -10.4499,2.09395 -50.27602,10.33492 -80.66667,16.69186 -16.13334,3.37468 -33.53334,6.97098 -38.66667,7.9918 -5.13333,1.02081 -16.53333,3.40736 -25.33333,5.30342 -8.80001,1.89607 -26.20001,5.55363 -38.66667,8.1279 -65.86489,13.60062 -98.79474,20.82885 -99.90183,21.92885 -0.75666,0.7518 -0.28919,2.27253 1.20665,3.92541 2.40229,2.65451 2.37372,2.69818 -1.76484,2.69818 -5.21948,0 -5.24507,0.99332 -0.18944,7.355 2.20948,2.78025 3.70963,5.3626 3.33369,5.73853 -0.37594,0.37595 -4.03238,-1.62292 -8.12544,-4.44191 -8.6459,-5.95465 -9.78237,-5.34472 -9.96542,5.34838 -0.0628,3.66666 -0.57167,7.83598 -1.13088,9.26516 -0.88828,2.27016 -1.2134,2.03441 -2.57296,-1.86563 z M 35.929907,438.62335 C 34.487635,437.73197 27.421582,409.13093 12.058551,342 9.876831,332.46667 6.443642,318.06667 4.4292422,310 0.79013908,295.42721 0.7639645,294.99477 0.33976505,242.43701 -0.06225486,192.62728 0.05152958,189.50073 2.28975,188.85573 c 1.3073043,-0.37673 7.624321,-1.74598 14.037815,-3.04278 9.205737,-1.86139 12.005004,-2.01371 13.295247,-0.72347 0.89889,0.89889 3.531621,10.17148 5.850512,20.60576 9.628251,43.32412 19.333083,84.51192 20.621971,87.52068 1.175555,2.7442 1.63856,2.93977 3.156513,1.33333 0.978385,-1.03542 13.365041,-24.68258 27.525905,-52.54925 37.437957,-73.67285 40.711267,-79.75209 43.496427,-80.7824 5.76368,-2.13212 56.41751,-12.30375 57.22924,-11.492 0.84904,0.84904 -13.62732,30.09927 -50.35025,101.73525 C 127.71891,269.86432 120,285.88104 120,287.05355 c 0,2.58949 3.38992,5.47893 47.19281,40.2254 29.3273,23.26377 38.14053,29.49314 38.14053,26.9585 0,-0.99105 12.54355,-73.61672 17.31252,-100.23745 1.57648,-8.8 4.88356,-27.7 7.34906,-42 8.25386,-47.87265 11.3906,-65.25121 12.12112,-67.15488 0.70861,-1.84663 8.70076,-3.95141 39.02945,-10.27869 l 13.81213,-2.88154 3.09314,3.15755 c 1.70121,1.73665 14.24788,17.85756 27.88147,35.82423 25.64154,33.79102 28.95314,38.11417 54.28918,70.87214 8.31156,10.74635 23.21194,30.15438 33.11194,43.12896 9.9,12.97459 22.35,29.15962 27.66667,35.96674 5.31666,6.8071 9.66666,13.30864 9.66666,14.44785 0,2.54403 0.61854,2.36192 -28.51869,8.39669 -17.08908,3.53943 -24.46106,4.55931 -26,3.59699 -1.18139,-0.73875 -8.03312,-9.53305 -15.22607,-19.54293 -12.14321,-16.89879 -13.38485,-18.19978 -17.36947,-18.19978 -2.36026,0 -15.37513,2.42744 -28.92192,5.39432 -13.54678,2.96688 -30.33052,6.60811 -37.29719,8.09162 -25.633,5.4584 -33.68141,7.62404 -35.64996,9.5926 -2.26296,2.26296 -4.45661,14.69684 -7.0892,40.18254 -2.02002,19.55563 -2.90766,21.2155 -12.08274,22.59456 -3.21462,0.48318 -16.64235,3.26332 -29.83941,6.1781 -13.19704,2.91478 -25.49704,5.28965 -27.33333,5.27749 -2.29519,-0.0152 -10.21476,-5.65824 -25.33869,-18.05497 C 138.12358,370.658 131.63503,365.298 86.26545,327.67961 73.211445,316.85583 61.961445,308 61.265449,308 c -0.695996,0 -1.265447,0.98059 -1.265447,2.17908 0,2.00988 8.099755,37.37803 21.330648,93.14176 2.956297,12.4598 5.107641,23.35112 4.780765,24.20295 -0.894588,2.33126 -47.639407,12.67066 -50.181508,11.09956 z M 295.33334,277.25336 c 24.04557,-5.05809 39.28947,-8.76504 40.33225,-9.80783 1.33197,-1.33197 -1.84631,-6.76408 -12.67086,-21.65617 -5.77917,-7.95081 -16.96417,-23.57155 -24.85553,-34.71273 -15.33874,-21.65551 -17.55806,-24.19859 -19.44943,-22.28679 -0.65848,0.66559 -3.69135,21.17843 -6.73972,45.58409 -5.87643,47.04738 -5.85447,49.00134 0.53585,47.67674 1.5661,-0.32462 11.84744,-2.48342 22.84744,-4.79731 z m 201.15196,56.75537 c -4.49976,-0.9786 -12.34231,-3.52749 -17.42788,-5.66422 -37.43534,-15.72866 -60.71736,-50.59348 -71.90511,-107.67784 -3.27564,-16.71363 -3.33401,-50.02574 -0.10867,-62 6.87462,-25.52221 21.91792,-43.30324 47.42362,-56.05426 17.51602,-8.756739 23.8439,-10.462331 95.97923,-25.869818 15.64557,-3.341759 29.23137,-6.075925 30.19069,-6.075925 2.23128,0 2.74371,1.338326 8.04964,21.023612 3.89555,14.452651 4.17874,16.587041 2.43244,18.333331 -1.08701,1.08702 -2.98352,1.97922 -4.21448,1.98268 -3.50897,0.01 -81.46031,17.14683 -88.90476,19.545 -15.85983,5.10911 -27.65378,14.52594 -32.76828,26.1637 -3.51156,7.9903 -5.15007,29.66845 -2.71736,35.95168 1.78737,4.61644 3.43016,4.63562 23.7123,0.2769 23.58943,-5.06948 68.83743,-15.00794 82.30607,-18.07806 9.78747,-2.23102 12.15995,-2.39775 13.54382,-0.95183 1.89125,1.97605 9.92345,31.22844 9.92345,36.14013 0,3.10603 -1.2051,3.45234 -47,13.50619 -73.81663,16.20579 -70.33334,15.30505 -70.33334,18.18732 0,4.57999 6.66138,20.45988 11.62759,27.71869 6.08523,8.89442 14.75538,15.61714 23.48415,18.20931 14.67553,4.35816 34.51231,1.75224 95.93991,-12.60341 18.63825,-4.35578 16.94836,-6.25564 16.94836,19.05421 v 21.79279 l -37.66667,8.20644 c -20.71667,4.51353 -41.86667,8.79489 -47,9.51412 -12.80743,1.79446 -31.68177,1.5077 -41.51472,-0.63074 z M 0,128.71467 C 0,110.30221 0.24117556,108.1103 2.3333334,107.50831 3.6166668,107.13904 15.166667,104.39754 28.000001,101.4161 40.833335,98.434648 59.733336,93.973236 70.000003,91.501848 80.26667,89.03046 109.06667,82.109705 134.00001,76.122393 230.13478,53.03728 252.80548,47.560924 256.80357,46.457844 c 3.49065,-0.963077 4.73313,-2.545971 7.95372,-10.132943 4.78343,-11.26864 12.16444,-19.375374 22.52723,-24.742159 7.33346,-3.7979367 9.1746,-4.1720116 20.71549,-4.2089105 11.45118,-0.036612 13.43435,0.3433404 20.66667,3.9595015 4.44444,2.222223 8,4.88889 8,6 0,1.417492 -4.79051,3.359184 -16.44787,6.666667 -9.78615,2.776568 -17.13132,5.605235 -18.13529,6.983999 -2.15208,2.955449 -5.01336,20.042128 -3.89338,23.25008 0.4671,1.337922 3.89491,5.582588 7.61736,9.432588 8.13089,8.409494 9.2025,8.519764 28.85918,2.969606 7.7,-2.174132 15.05,-3.95671 16.33333,-3.961286 6.94556,-0.02476 -4.19476,20.086625 -14.89204,26.884273 -17.55644,11.15634 -41.97721,9.657513 -57.66027,-3.538911 -2.2049,-1.855302 -5.67301,-3.353682 -7.76233,-3.353682 -2.99616,0 -262.7055977,63.696983 -269.0187033,65.980203 C 0.37938576,149.11243 0,144.57524 0,128.71467 Z M 621.61456,28.534504 c -0.15467,-4.472691 -0.57196,-12.872691 -0.92732,-18.6666671 -0.54744,-8.92544053 -0.439,-9.72368753 0.7099,-5.2261072 0.74582,2.919618 1.16311,11.3196183 0.92732,18.6666663 -0.25929,8.079165 -0.53984,10.144491 -0.7099,5.226108 z"
       id="path32"
       inkscape:connector-curvature="0" />
    <path
       style="fill:#6590cf;stroke-width:1.33333337"
       d="m 160.68946,485.43709 c -1.31625,-5.99285 -4.11019,-7.69598 -7.58077,-4.6211 -2.82648,2.5042 -2.83686,2.499 -1.98788,-0.99676 1.32418,-5.45254 -1.62608,-6.99944 -11.26871,-5.90851 -10.10068,1.14276 -10.15,-0.89084 -0.1244,-5.12893 10.47883,-4.42971 10.91868,-5.29456 5.53637,-10.88582 l -4.5974,-4.77588 5.20015,0.95923 5.20013,0.95921 -0.87312,-5.8526 -0.87312,-5.8526 3.67299,4.34535 c 4.08629,4.83433 5.86015,5.30892 8.40084,2.24759 1.52383,-1.83611 2.05371,-1.65654 4.62413,1.56709 l 2.9031,3.64081 13.87245,-2.8399 c 17.52733,-3.58812 37.45221,-7.75732 77.87246,-16.2945 17.6,-3.7173 49.1,-10.31172 70,-14.65426 20.9,-4.34255 48.2,-10.0331 60.66667,-12.64564 39.20891,-8.21675 60.44672,-12.62736 90,-18.69099 29.91418,-6.13767 134.94503,-28.19161 139.00001,-29.18665 2.01586,-0.49467 2.33333,0.45934 2.33333,7.01178 0,6.93863 -0.25956,7.60586 -3.04859,7.83668 -1.67672,0.13876 -10.22672,1.80778 -19,3.70891 -24.49536,5.30805 -56.44561,12.03916 -95.28475,20.07405 -65.62261,13.57579 -80.64721,16.67427 -86.66667,17.87308 -3.3,0.65723 -19.2,3.96362 -35.33333,7.34755 -16.13334,3.38393 -33.53334,6.98781 -38.66667,8.00863 -5.13333,1.02081 -16.53333,3.40736 -25.33333,5.30342 -8.80001,1.89607 -26.20001,5.55363 -38.66667,8.1279 -94.15573,19.44248 -98.43202,20.47104 -102.84586,24.73729 -2.76544,2.67297 -3.9532,4.90359 -3.51115,6.59396 0.69306,2.65027 -1.52952,3.56219 -2.97633,1.22119 -1.28627,-2.08122 -5.62571,-1.56526 -6.52401,0.77572 -0.44514,1.15997 -0.80932,3.52456 -0.80932,5.25464 0,4.70774 -2.32495,5.22748 -3.31055,0.74006 z M 34.664556,431.99216 C 33.873531,429.05451 30.244162,413.90451 26.599296,398.32549 17.360313,358.83591 12.961031,340.30224 6.4249688,313.33333 L 0.7700065,290 0.33892111,240.43743 -0.09216428,190.87487 7.6205848,189.33983 c 4.2420122,-0.84427 9.8127492,-2.08776 12.3794162,-2.76332 10.089032,-2.65551 9.984187,-2.78142 14.509278,17.42349 2.659264,11.87383 10.642857,46.09596 13.530671,58 0.7116,2.93333 2.476129,10.798 3.921175,17.47704 1.445046,6.67904 3.291556,13.87904 4.103354,16 l 1.475999,3.85629 2.463187,-3.02433 c 1.354753,-1.66337 16.967159,-31.66337 34.694236,-66.66667 17.727079,-35.00328 32.993069,-64.44194 33.924429,-65.41924 0.93137,-0.97729 12.12236,-4.04146 24.86886,-6.80928 32.30078,-7.01385 31.84263,-6.94122 31.83911,-5.04714 C 185.3293,153.265 180.31801,163.9 174.19558,176 c -6.12241,12.1 -21.12105,41.71132 -33.33029,65.80295 -12.20924,24.09161 -22.19862,44.59689 -22.19862,45.56728 0,1.77137 14.35833,14.64462 27.94412,25.05388 4.0026,3.06674 18.033,14.12589 31.17866,24.57589 13.14565,10.45 24.97825,19 26.29468,19 2.48509,0 3.5135,-3.49768 6.46854,-22 1.61252,-10.09644 8.55598,-50.20525 12.92595,-74.66667 1.83412,-10.26666 4.80854,-27.36666 6.6098,-38 9.09619,-53.69701 13.00748,-74.15518 14.474,-75.70685 2.9538,-3.12529 44.99696,-11.91401 50.12612,-10.47839 2.2253,0.62286 8.77823,8.18684 19.97814,23.06056 21.18855,28.13883 36.50496,48.17083 60.49855,79.12468 10.51606,13.56667 24.11784,31.26667 30.22615,39.33334 6.1083,8.06666 18.1941,23.85833 26.85733,35.0926 8.66321,11.23426 15.75131,21.26114 15.75131,22.28194 0,1.0544 -2.44742,2.51747 -5.66667,3.38754 -10.14812,2.74274 -44.09455,8.99105 -45.56631,8.3871 -0.78853,-0.32358 -7.11675,-8.66632 -14.06269,-18.53941 -6.94596,-9.87311 -13.84307,-18.33641 -15.32692,-18.80737 -4.68936,-1.48835 -9.20838,-0.81403 -41.67244,6.21824 -53.52265,11.59393 -65.6385,14.69192 -66.89755,17.10548 -1.0556,2.02357 -1.8409,7.22537 -5.46608,36.20721 -0.68798,5.5 -1.61275,12.88179 -2.05506,16.40397 -0.61577,4.90343 -1.48552,6.67883 -3.71192,7.577 -3.7436,1.51024 -58.85157,13.35236 -62.13601,13.35236 -2.62935,0 -25.43652,-18.0643 -78.10503,-61.8627 -17.600003,-14.63592 -34.783272,-28.90423 -38.185044,-31.70736 -5.842654,-4.81447 -10.481627,-6.54463 -10.481627,-3.90924 0,0.65305 1.453673,6.80305 3.230385,13.66666 1.776711,6.86363 4.190223,17.57931 5.363359,23.81264 1.173136,6.23334 3.013378,14.63334 4.089424,18.66667 1.879735,7.04579 7.540483,30.70547 11.902905,49.7494 2.720133,11.87461 2.652847,12.76569 -1.070844,14.18144 -3.942558,1.49896 -40.78831,9.40249 -43.833795,9.40249 -1.491844,0 -2.727951,-1.79236 -3.683547,-5.34117 z M 294.66668,279.13776 c 40.99383,-8.7936 42.66667,-9.30103 42.66667,-12.94224 0,-2.77912 -13.39739,-22.42615 -44.0025,-64.52885 -10.2858,-14.14992 -14.30108,-17.49023 -16.58409,-13.79624 -0.88371,1.42986 -11.41342,83.67749 -11.41342,89.15024 0,8.00988 1.39358,8.11045 29.33334,2.11709 z m 206.66667,54.6084 C 494.0567,332.52944 480.12779,327.38952 470.0379,322.19779 439.45735,306.4626 417.58656,270.14619 408.49146,220 c -3.19891,-17.63728 -3.24218,-48.35325 -0.0845,-60 8.47912,-31.27443 28.55692,-50.97489 64.92641,-63.70616 13.66545,-4.78364 106.63514,-24.892349 108.04393,-23.369164 2.28057,2.465771 10.73078,36.408654 9.06406,36.408654 -0.3114,0 -6.23808,1.24736 -13.17041,2.7719 -6.93234,1.52454 -27.30424,5.95984 -45.27091,9.85622 -17.96667,3.89638 -35.96667,8.35764 -40,9.91392 -14.92247,5.7579 -26.16702,16.96686 -30.01315,29.91816 -2.39649,8.06987 -2.62203,28.68694 -0.36793,33.63412 1.51656,3.32851 2.04338,3.50751 8.33333,2.83126 5.78328,-0.62178 61.38879,-12.48786 98.56506,-21.03355 6.51784,-1.49825 12.28107,-2.23688 12.80715,-1.64139 1.41001,1.59602 10.07026,36.13243 9.2629,36.93978 -0.37897,0.37897 -22.56617,5.48534 -49.30487,11.34749 -62.96827,13.80504 -65.41016,14.38976 -67.08385,16.06345 -3.5306,3.5306 6.21025,26.5427 15.66105,36.99816 9.24694,10.22992 18.2004,14.16323 33.79234,14.84518 13.84096,0.60534 15.26041,0.37912 61.9674,-9.8761 18.12403,-3.9794 33.87403,-7.23526 35,-7.23526 1.75192,0 2.04724,2.95469 2.04724,20.4826 v 20.4826 l -7,1.4602 c -3.85,0.8031 -19.6,4.19393 -35,7.53516 -15.4,3.34122 -33.4,6.96454 -40,8.05184 -11.09758,1.82821 -31.47511,2.38104 -39.33334,1.06709 z M 0,128.71467 C 0,110.30221 0.24117556,108.1103 2.3333334,107.50831 3.6166668,107.13904 15.166667,104.39754 28.000001,101.4161 40.833335,98.434648 59.733336,93.973236 70.000003,91.501848 80.26667,89.03046 109.06667,82.109705 134.00001,76.122393 230.13478,53.03728 252.80548,47.560924 256.80357,46.457844 c 3.49065,-0.963077 4.73313,-2.545971 7.95372,-10.132943 4.78343,-11.26864 12.16444,-19.375374 22.52723,-24.742159 7.33346,-3.7979367 9.1746,-4.1720116 20.71549,-4.2089105 11.45118,-0.036612 13.43435,0.3433404 20.66667,3.9595015 4.44444,2.222223 8,4.88889 8,6 0,1.417492 -4.79051,3.359184 -16.44787,6.666667 -9.78615,2.776568 -17.13132,5.605235 -18.13529,6.983999 -2.15208,2.955449 -5.01336,20.042128 -3.89338,23.25008 0.4671,1.337922 3.89491,5.582588 7.61736,9.432588 8.13089,8.409494 9.2025,8.519764 28.85918,2.969606 7.7,-2.174132 15.05,-3.95671 16.33333,-3.961286 6.94556,-0.02476 -4.19476,20.086625 -14.89204,26.884273 -17.55644,11.15634 -41.97721,9.657513 -57.66027,-3.538911 -2.2049,-1.855302 -5.67301,-3.353682 -7.76233,-3.353682 -2.99616,0 -262.7055977,63.696983 -269.0187033,65.980203 C 0.37938576,149.11243 0,144.57524 0,128.71467 Z"
       id="path30"
       inkscape:connector-curvature="0" />
    <path
       style="fill:#86ae71;stroke-width:1.33333337"
       d="m 160.68946,485.43709 c -1.31625,-5.99285 -4.11019,-7.69598 -7.58077,-4.6211 -2.82648,2.5042 -2.83686,2.499 -1.98788,-0.99676 1.32418,-5.45254 -1.62608,-6.99944 -11.26871,-5.90851 -10.10068,1.14276 -10.15,-0.89084 -0.1244,-5.12893 10.47883,-4.42971 10.91868,-5.29456 5.53637,-10.88582 l -4.5974,-4.77588 5.20015,0.95923 5.20013,0.95921 -0.87312,-5.8526 -0.87312,-5.8526 3.67299,4.34535 c 4.18235,4.94797 5.16832,5.19132 8.56799,2.11467 2.13464,-1.93183 2.43832,-1.95023 2.43832,-0.14771 0,1.13241 1.05,3.2634 2.33333,4.73552 2.31128,2.65129 2.45932,2.6538 15.66667,0.26529 7.33333,-1.32621 19.03333,-3.64914 26,-5.16208 6.96666,-1.51292 18.06667,-3.9155 24.66667,-5.33905 17.03965,-3.67528 72.07153,-15.31179 88.66667,-18.74859 7.7,-1.59464 23.6,-4.92492 35.33333,-7.40061 34.47799,-7.27475 181.72161,-38.07325 213.33334,-44.62231 27.41904,-5.68044 50.41352,-10.80533 51.50318,-11.47878 0.63992,-0.3955 1.16349,1.87773 1.16349,5.0516 v 5.77066 l -17.66667,3.69675 c -9.71666,2.03321 -27.56667,5.79263 -39.66667,8.35427 -35.79148,7.57726 -83.38032,17.43958 -124.66667,25.83596 -21.26666,4.32497 -46.16667,9.44224 -55.33333,11.37168 -25.77422,5.42509 -84.85803,17.62412 -110.00001,22.7117 -12.46666,2.52268 -28.36666,5.86119 -35.33333,7.4189 -6.96667,1.55772 -16.86667,3.63665 -22,4.61985 -12.97735,2.4856 -35.52675,7.24175 -38.33334,8.08532 -1.28333,0.38572 -2.33333,1.7462 -2.33333,3.02329 0,1.27708 -0.81699,3.43928 -1.81553,4.80487 -0.99855,1.36559 -1.52858,3.58027 -1.17783,4.92151 0.67005,2.56228 -1.59219,3.3939 -3.00664,1.10528 -1.28627,-2.08122 -5.62571,-1.56526 -6.52401,0.77572 -0.44514,1.15997 -0.80932,3.52456 -0.80932,5.25464 0,4.70774 -2.32495,5.22748 -3.31055,0.74006 z M 34.664556,431.99216 C 33.873531,429.05451 30.244162,413.90451 26.599296,398.32549 17.360313,358.83591 12.961031,340.30224 6.4249688,313.33333 L 0.7700065,290 0.33862349,240.33333 c -0.23726065,-27.31666 -0.10004504,-49.66666 0.30492357,-49.66666 0.40496864,0 6.46480704,-1.24114 13.46630794,-2.75806 13.111253,-2.84066 16.556813,-2.36592 16.556813,2.2813 0,1.7674 17.799932,79.81108 22.223886,97.44046 2.659168,10.59674 4.639031,12.4132 8.092759,7.42488 C 62.40062,293.0082 77.819508,263.13333 95.247512,228.66667 112.67551,194.2 127.6955,165.20039 128.62525,164.22309 c 0.92976,-0.97729 12.11944,-4.04146 24.86594,-6.80928 31.50612,-6.8413 31.84215,-6.8972 31.84215,-5.29642 0,0.76122 -4.42612,9.89622 -9.83581,20.3 -29.7241,57.16453 -56.83086,111.87913 -56.83086,114.71225 0,2.64385 7.29374,9.05023 39.90799,35.05273 37.35287,29.78051 45.49844,35.52231 47.52235,33.4984 0.44864,-0.44862 1.93268,-7.31033 3.29789,-15.24824 8.54161,-49.66481 11.10361,-64.41769 14.08372,-81.0992 1.83412,-10.26666 4.80854,-27.36666 6.6098,-38 9.09619,-53.69701 13.00748,-74.15518 14.474,-75.70685 2.9538,-3.12529 44.99696,-11.91401 50.12612,-10.47839 2.2253,0.62286 8.77823,8.18684 19.97814,23.06056 21.18855,28.13883 36.50496,48.17083 60.49855,79.12468 10.51606,13.56667 24.11784,31.26667 30.22615,39.33334 6.1083,8.06666 18.1941,23.85833 26.85733,35.0926 8.66321,11.23426 15.75131,21.26114 15.75131,22.28194 0,1.0544 -2.44742,2.51747 -5.66667,3.38754 -10.14812,2.74274 -44.09455,8.99105 -45.56631,8.3871 -0.78853,-0.32358 -7.11675,-8.66632 -14.06269,-18.53941 -6.94596,-9.87311 -13.84307,-18.33641 -15.32692,-18.80737 -4.68936,-1.48835 -9.20838,-0.81403 -41.67244,6.21824 -53.52265,11.59393 -65.6385,14.69192 -66.89755,17.10548 -1.0556,2.02357 -1.8409,7.22537 -5.46608,36.20721 -0.68798,5.5 -1.61275,12.88179 -2.05506,16.40397 -0.61577,4.90343 -1.48552,6.67883 -3.71192,7.577 -3.7436,1.51024 -58.85157,13.35236 -62.13601,13.35236 -2.62935,0 -25.43652,-18.0643 -78.10503,-61.8627 -17.600003,-14.63592 -34.783272,-28.90423 -38.185044,-31.70736 -3.401774,-2.80314 -7.151774,-5.0966 -8.333334,-5.0966 -3.952792,0 -4.519555,-3.04742 14.466585,77.785 4.795151,20.41509 8.718456,38.50045 8.718456,40.1897 0,3.33571 -1.525261,3.83478 -30.604241,10.01371 -17.092262,3.63191 -17.033953,3.6402 -18.731206,-2.66292 z M 294.66668,279.13776 c 40.99383,-8.7936 42.66667,-9.30103 42.66667,-12.94224 0,-2.77912 -13.39739,-22.42615 -44.0025,-64.52885 -10.2858,-14.14992 -14.30108,-17.49023 -16.58409,-13.79624 -0.88371,1.42986 -11.41342,83.67749 -11.41342,89.15024 0,8.00988 1.39358,8.11045 29.33334,2.11709 z m 206.66667,54.6084 C 494.0567,332.52944 480.12779,327.38952 470.0379,322.19779 439.45735,306.4626 417.58656,270.14619 408.49146,220 c -3.19891,-17.63728 -3.24218,-48.35325 -0.0845,-60 8.47912,-31.27443 28.55692,-50.97489 64.92641,-63.70616 13.66545,-4.78364 106.63514,-24.892349 108.04393,-23.369164 2.28057,2.465771 10.73078,36.408654 9.06406,36.408654 -0.3114,0 -6.23808,1.24736 -13.17041,2.7719 -6.93234,1.52454 -27.30424,5.95984 -45.27091,9.85622 -17.96667,3.89638 -35.96667,8.35764 -40,9.91392 -14.92247,5.7579 -26.16702,16.96686 -30.01315,29.91816 -2.39649,8.06987 -2.62203,28.68694 -0.36793,33.63412 1.51656,3.32851 2.04338,3.50751 8.33333,2.83126 5.78328,-0.62178 61.38879,-12.48786 98.56506,-21.03355 6.51784,-1.49825 12.28107,-2.23688 12.80715,-1.64139 1.41001,1.59602 10.07026,36.13243 9.2629,36.93978 -0.37897,0.37897 -22.56617,5.48534 -49.30487,11.34749 -62.96827,13.80504 -65.41016,14.38976 -67.08385,16.06345 -3.5306,3.5306 6.21025,26.5427 15.66105,36.99816 9.24694,10.22992 18.2004,14.16323 33.79234,14.84518 13.84096,0.60534 15.26041,0.37912 61.9674,-9.8761 18.12403,-3.9794 33.87403,-7.23526 35,-7.23526 1.75192,0 2.04724,2.95469 2.04724,20.4826 v 20.4826 l -7,1.4602 c -3.85,0.8031 -19.6,4.19393 -35,7.53516 -15.4,3.34122 -33.4,6.96454 -40,8.05184 -11.09758,1.82821 -31.47511,2.38104 -39.33334,1.06709 z M 0,128.14265 c 0,-18.43605 0.05766118,-18.80932 2.9056244,-18.80932 1.5980934,0 10.1480936,-1.77262 19.0000006,-3.93915 15.58432,-3.81432 24.757806,-6.011488 61.427711,-14.712721 28.737204,-6.818919 49.800614,-11.94796 66.666674,-16.233658 8.8,-2.236097 19.9,-4.854597 24.66666,-5.818889 4.76667,-0.964292 21.26667,-4.829885 36.66667,-8.590208 15.4,-3.760323 31.9,-7.740897 36.66667,-8.84572 13.70055,-3.175525 14.29685,-3.616743 19.5014,-14.429468 5.49264,-11.411224 10.9608,-17.414993 20.85457,-22.897265 C 294.75456,10.320712 296.44294,10 308.70988,10 c 10.28639,0 14.67561,0.585809 19,2.535832 3.09291,1.394708 5.62347,3.196963 5.62347,4.005011 0,0.808048 -6.40144,3.266924 -14.22543,5.464168 -18.74388,5.263929 -19.73979,6.124976 -21.60732,18.681329 -2.05664,13.827929 -2.26719,12.920724 5.03482,21.694977 8.75882,10.524787 12.10455,11.821492 23.00497,8.916046 21.3198,-5.682679 23.9345,-6.266926 24.68553,-5.515903 1.48311,1.483103 -2.77317,9.511791 -8.13111,15.337867 -9.53068,10.363397 -24.8762,15.819814 -38.28013,13.611294 C 294.08997,93.128319 290.34369,91.53692 281.66273,85.320627 277.57614,82.394283 272.78268,80 271.01058,80 269.23849,80 254.78617,83.274589 238.8943,87.276867 223.00244,91.279143 181.80001,101.50713 147.33334,110.00572 54.374303,132.92702 3.5401739,145.59789 1.6666667,146.31449 0.38197061,146.80587 0,142.6412 0,128.14265 Z"
       id="path28"
       inkscape:connector-curvature="0" />
    <path
       style="fill:#ffffff;stroke-width:1.33333337;fill-opacity:1"
       d="m 160.25558,481.24709 c -0.88633,-1.41924 -2.58761,-2.58042 -3.78064,-2.58042 -1.19303,0 -3.48669,-1.42166 -5.09703,-3.15923 -2.55196,-2.75361 -3.8127,-3.07421 -9.81956,-2.49703 -3.79042,0.3642 -6.89168,0.25284 -6.89168,-0.24748 0,-0.50032 3.3,-2.36909 7.33334,-4.15282 7.66129,-3.38819 9.37721,-6.58732 5.33333,-9.94344 -2.14365,-1.77908 -2.80828,-4.65692 -0.78699,-3.4077 2.12272,1.31192 5.45366,-0.78446 5.45366,-3.43236 0,-2.41996 0.17621,-2.43929 3.34001,-0.36629 2.76488,1.81163 3.69909,1.89044 5.42544,0.45769 1.76264,-1.46286 2.53553,-1.1989 4.99332,1.70527 l 2.90789,3.43604 13.33334,-2.41208 c 7.33333,-1.32665 19.03333,-3.64993 26,-5.16287 6.96666,-1.51292 18.06667,-3.9155 24.66667,-5.33905 17.03965,-3.67528 72.07153,-15.31179 88.66667,-18.74859 7.7,-1.59464 23.6,-4.92492 35.33333,-7.40061 34.47799,-7.27475 181.72161,-38.07325 213.33334,-44.62231 27.41904,-5.68044 50.41352,-10.80533 51.50318,-11.47878 0.63992,-0.3955 1.16349,1.87773 1.16349,5.0516 v 5.77066 l -17.66667,3.69675 c -9.71666,2.03321 -27.56667,5.79263 -39.66667,8.35427 -35.79148,7.57726 -83.38032,17.43958 -124.66667,25.83596 -21.26666,4.32497 -46.16667,9.44224 -55.33333,11.37168 -25.77422,5.42509 -84.85803,17.62412 -110.00001,22.7117 -12.46666,2.52268 -28.36666,5.86119 -35.33333,7.4189 -6.96667,1.55772 -16.86667,3.63665 -22,4.61985 -12.97735,2.4856 -35.52675,7.24175 -38.33334,8.08532 -1.28333,0.38572 -2.33333,1.78741 -2.33333,3.11487 0,1.32746 -0.9,3.16049 -2,4.07341 -1.1,0.91292 -2,2.77153 -2,4.13025 0,2.04892 -0.53983,2.26518 -3.16404,1.26746 -3.3268,-1.26486 -6.16929,0.32792 -6.16929,3.45693 0,2.86239 -2.06667,3.07899 -3.74443,0.39245 z M 36.879115,436.33333 C 36.542736,435.78333 29.589593,406.83333 21.427686,372 13.26578,337.16667 5.1055891,302.64357 3.2939284,295.28203 0.11754472,282.37501 0,280.27767 0,236.50868 v -45.38871 l 13.666667,-2.75437 c 13.852225,-2.79176 17.000001,-2.44548 17.000001,1.87019 0,3.43436 22.864317,101.0091 24.470886,104.43088 3.733835,7.95254 2.12506,10.66432 52.390956,-88.31098 11.44607,-22.53769 21.50492,-41.5535 22.353,-42.25736 1.49693,-1.24233 38.18614,-9.74964 49.96254,-11.58505 3.32742,-0.5186 5.6241,-0.3946 5.33333,0.28795 -0.99921,2.34544 -33.77871,67.0517 -50.01155,98.72206 -9.07454,17.70448 -16.49916,33.69987 -16.49916,35.54531 0,2.68097 3.14873,5.88297 15.66667,15.93169 40.5064,32.51631 68.65941,54.33122 70.09264,54.31263 4.23925,-0.0549 6.40961,-5.59457 9.55607,-24.39076 1.72956,-10.33193 6.30034,-35.79265 8.78267,-48.92216 0.62392,-3.3 2.36178,-14.01491 3.86196,-23.81089 1.50016,-9.79599 3.1088,-18.42775 3.57476,-19.18168 0.46596,-0.75394 1.33046,-5.03904 1.92113,-9.52244 3.10093,-23.53722 12.99208,-77.99316 14.89557,-82.00796 1.72927,-3.64732 2.10556,-3.76682 31.64854,-10.0508 16.30545,-3.46828 15.77588,-3.66982 26.15533,9.95321 5.04791,6.62536 12.478,16.1918 16.51134,21.25876 4.03333,5.06697 9.43333,12.32428 12,16.12739 2.56666,3.80309 6.7737,9.38665 9.34897,12.40789 2.57527,3.02125 6.73013,8.49319 9.23303,12.15985 2.50289,3.66667 5.64053,7.73508 6.97253,9.04092 1.33199,1.30584 4.94433,5.80584 8.02743,10 3.0831,4.19416 9.27121,12.12575 13.75137,17.62575 9.35956,11.49013 18.51912,23.48636 23.33334,30.55957 1.83333,2.6936 9.0742,12.06962 16.09082,20.8356 17.51712,21.88444 25.34787,32.68899 24.58566,33.92228 -0.35411,0.57296 -2.30119,1.36904 -4.32683,1.76906 -2.02564,0.40001 -10.28299,2.2542 -18.34965,4.1204 -19.18147,4.43758 -23.83139,4.45549 -26.93777,0.10386 -1.31756,-1.84577 -4.79557,-6.6078 -7.7289,-10.58228 -2.93334,-3.97448 -7.43334,-10.22909 -10,-13.89914 -5.11734,-7.31724 -8.57806,-9.49804 -15.06274,-9.49191 -4.25234,0.004 -31.1005,4.86077 -32.85104,5.94267 -0.50561,0.31248 -9.58185,2.41665 -20.16943,4.67594 -10.58757,2.25928 -21.65013,4.6641 -24.58346,5.34403 -2.93334,0.67993 -8.63334,1.94004 -12.66667,2.80024 -16.10468,3.43465 -16.14208,3.48677 -18.58397,25.89975 -0.79898,7.33333 -2.423,19.75292 -3.60895,27.59908 l -2.15628,14.26573 -4.15873,0.84372 c -2.28731,0.46404 -16.3412,3.5098 -31.23087,6.76836 -14.88968,3.25856 -27.78968,5.50741 -28.66667,4.99745 -0.877,-0.50997 -7.22,-5.47532 -14.09556,-11.0341 -6.87556,-5.55887 -17.73237,-14.30698 -24.12624,-19.44031 -6.39388,-5.13333 -23.86842,-19.55663 -38.83232,-32.05176 -45.565244,-38.04781 -46.437276,-38.68453 -48.472294,-35.3918 -0.415757,0.67271 1.326451,10.12271 3.871574,21 2.545122,10.87729 8.549877,36.48015 13.343899,56.89523 8.967575,38.18793 9.556974,41.53812 7.52838,42.79186 -1.035759,0.64014 -42.845539,10.0898 -44.642032,10.0898 -0.373579,0 -0.954454,-0.45 -1.290832,-1 z M 286.50976,283.37708 c 6.88036,-1.15744 13.06425,-2.44713 13.74197,-2.86599 0.67771,-0.41885 4.34832,-1.25428 8.15691,-1.85652 9.07813,-1.43546 23.39364,-5.17541 27.59137,-7.20828 2.69238,-1.30384 3.30594,-2.53878 3.19083,-6.4223 -0.0817,-2.7582 -1.402,-6.41732 -3.09671,-8.5827 -1.62481,-2.07604 -5.16068,-7.131 -7.85749,-11.23322 -2.69681,-4.10223 -7.74349,-11.30223 -11.21487,-16 -3.47136,-4.69778 -7.53989,-10.3414 -9.04119,-12.5414 -14.03968,-20.57383 -25.73804,-34 -29.62452,-34 -4.02196,0 -4.91138,3.95116 -9.00428,40 -0.62445,5.5 -2.08348,16.9 -3.24228,25.33333 -1.1588,8.43333 -2.25749,19.80076 -2.44153,25.26093 -0.31685,9.40016 -0.15753,10.01846 2.99871,11.6375 1.83333,0.94042 4.23333,1.45634 5.33333,1.14648 1.1,-0.30987 7.62939,-1.51039 14.50975,-2.66783 z m 215.84145,50.00307 C 473.25724,328.06401 447.52286,310.2622 432.2127,284.86169 411.70612,250.84001 401.08436,193.10693 409.34114,160.54661 413.69092,143.3934 418.98452,134.06608 431.21776,122 443.16455,110.21647 455.76068,102.72401 473.75434,96.698303 489.98001,91.264657 577.12838,72.457725 580.351,73.69436 c 2.3022,0.883439 11.03941,32.78389 9.4208,34.3963 -0.60782,0.60548 -19.40511,5.03999 -41.77178,9.85448 -22.36667,4.81449 -43.96667,9.69962 -48,10.85584 -18.728,5.36871 -33.46159,17.77855 -38.06134,32.05835 -2.56624,7.96688 -3.36642,25.45226 -1.49958,32.76886 2.02137,7.9222 0.66417,8.09026 82.89425,-10.26496 18.33334,-4.09234 34.47682,-7.27319 35.87441,-7.06858 2.05478,0.30082 3.3915,3.56154 6.985,17.03868 2.44416,9.16667 4.21136,17.30762 3.9271,18.09099 -0.28425,0.78337 -3.72749,2.12339 -7.65166,2.9778 -47.76643,10.40032 -100.13178,21.98513 -103.99776,23.00749 -2.67458,0.70731 -5.21218,2.19623 -5.63908,3.30871 -0.972,2.533 5.96594,21.78976 9.94687,27.60825 9.62691,14.07064 20.46958,21.30983 35.67956,23.8217 11.79504,1.94792 18.53694,0.98154 66.32274,-9.50659 19.98457,-4.38625 36.70011,-7.97501 37.14561,-7.97501 0.4455,0 0.64438,9.12361 0.44195,20.27469 l -0.36807,20.27469 -8,1.66138 c -4.4,0.91374 -13.7,2.92293 -20.66666,4.46484 -54.11193,11.97642 -75.69219,14.83172 -90.98215,12.03788 z M 0,128.14265 c 0,-18.43605 0.05766118,-18.80932 2.9056244,-18.80932 1.5980934,0 10.1480936,-1.77262 19.0000006,-3.93915 15.58432,-3.81432 24.757806,-6.011488 61.427711,-14.712721 28.737204,-6.818919 49.800614,-11.94796 66.666674,-16.233658 8.8,-2.236097 19.9,-4.854597 24.66666,-5.818889 4.76667,-0.964292 21.26667,-4.829885 36.66667,-8.590208 15.4,-3.760323 31.9,-7.740897 36.66667,-8.84572 13.70055,-3.175525 14.29685,-3.616743 19.5014,-14.429468 5.49264,-11.411224 10.9608,-17.414993 20.85457,-22.897265 C 294.75456,10.320712 296.44294,10 308.70988,10 c 10.28639,0 14.67561,0.585809 19,2.535832 3.09291,1.394708 5.62347,3.196963 5.62347,4.005011 0,0.808048 -6.40144,3.266924 -14.22543,5.464168 -18.74388,5.263929 -19.73979,6.124976 -21.60732,18.681329 -2.05664,13.827929 -2.26719,12.920724 5.03482,21.694977 8.75882,10.524787 12.10455,11.821492 23.00497,8.916046 21.3198,-5.682679 23.9345,-6.266926 24.68553,-5.515903 1.48311,1.483103 -2.77317,9.511791 -8.13111,15.337867 -9.53068,10.363397 -24.8762,15.819814 -38.28013,13.611294 C 294.08997,93.128319 290.34369,91.53692 281.66273,85.320627 277.57614,82.394283 272.78268,80 271.01058,80 269.23849,80 254.78617,83.274589 238.8943,87.276867 223.00244,91.279143 181.80001,101.50713 147.33334,110.00572 54.374303,132.92702 3.5401739,145.59789 1.6666667,146.31449 0.38197061,146.80587 0,142.6412 0,128.14265 Z"
       id="path26"
       inkscape:connector-curvature="0" />
    <path
       style="fill:#196ac5;stroke-width:1.33333337"
       d="m 160.00001,479.33333 c -0.91292,-1.1 -2.64206,-2 -3.84254,-2 -1.20046,0 -2.91114,-1.16648 -3.80152,-2.59217 -1.15522,-1.84981 -3.44269,-2.71727 -7.98738,-3.02899 l -6.36856,-0.43682 6.33333,-2.92363 c 6.24571,-2.88317 8.41675,-6.90672 4.89963,-9.08041 -0.91714,-0.56683 -0.43674,-1.8149 1.33333,-3.46398 1.52188,-1.41782 2.76704,-3.22797 2.76704,-4.02253 0,-0.94728 0.68261,-0.87813 1.98268,0.20083 1.15852,0.96148 3.40972,1.28732 5.41565,0.78386 2.48315,-0.62322 4.05576,-0.1492 5.68398,1.71332 2.20886,2.5267 2.50078,2.52976 15.58436,0.16364 7.33333,-1.32621 19.03333,-3.64914 26,-5.16208 6.96666,-1.51292 18.06667,-3.9155 24.66667,-5.33905 17.03965,-3.67528 72.07153,-15.31179 88.66667,-18.74859 7.7,-1.59464 23.6,-4.92492 35.33333,-7.40061 34.47799,-7.27475 181.72161,-38.07325 213.33334,-44.62231 27.41904,-5.68044 50.41352,-10.80533 51.50318,-11.47878 0.63992,-0.3955 1.16349,1.87773 1.16349,5.0516 v 5.77066 l -17.66667,3.69675 c -9.71666,2.03321 -27.56667,5.79263 -39.66667,8.35427 -35.79148,7.57726 -83.38032,17.43958 -124.66667,25.83596 -21.26666,4.32497 -46.16667,9.44224 -55.33333,11.37168 -25.77422,5.42509 -84.85803,17.62412 -110.00001,22.7117 -12.46666,2.52268 -28.36666,5.86119 -35.33333,7.4189 -6.96667,1.55772 -16.86667,3.63665 -22,4.61985 -12.97735,2.4856 -35.52675,7.24175 -38.33334,8.08532 -1.28333,0.38572 -2.33333,1.87971 -2.33333,3.31997 0,1.44027 -0.9,2.96403 -2,3.38614 -1.1,0.42212 -2,1.95096 -2,3.39742 0,2.24164 -0.60417,2.49727 -4.09185,1.73124 -3.43426,-0.75429 -4.20922,-0.44989 -4.82218,1.89407 -0.8634,3.30165 -2.14614,3.53176 -4.4193,0.79277 z M 36.689316,433 C 36.307161,431.35 34.132712,421.9 31.857205,412 16.110215,343.48989 2.7337217,287.94999 1.364021,285.39068 0.51015861,283.79521 0,265.71343 0,237.04505 v -45.79692 l 13.851915,-2.46094 c 13.996726,-2.48667 16.814753,-2.25807 16.814753,1.36402 0,3.48195 22.837235,101.03599 24.463071,104.49915 2.982275,6.35248 5.371347,4.77104 12.486114,-8.26519 3.717694,-6.81184 18.889472,-36.38517 33.715057,-65.7185 14.82559,-29.33334 27.94115,-54.31376 29.14569,-55.51204 1.30756,-1.30079 11.32383,-4.16495 24.85674,-7.1078 12.46667,-2.71099 24.01667,-5.24562 25.66667,-5.6325 1.82781,-0.42857 3,-0.0819 3,0.88734 0,1.67365 -21.08958,44.09174 -48.83418,98.22162 -9.07454,17.70448 -16.49916,33.71136 -16.49916,35.57084 0,2.75112 3.53909,6.20632 19,18.54958 44.61002,35.61453 63.24999,50.0372 67.0947,51.91446 6.89597,3.36715 42.14692,32.06688 40.90819,33.30562 C 244.31792,392.21543 190.99393,404 186.22954,404 c -1.97721,0 -6.83876,-2.98261 -12.4964,-7.66667 C 168.64005,392.11667 158.58198,383.86667 151.3819,378 144.18182,372.13333 122.6254,354.30303 103.47875,338.37711 67.179872,308.18417 61.036108,303.76389 58.665152,306.13485 c -1.412394,1.41239 -0.49116,5.73614 17.496023,82.11635 4.436297,18.83815 7.857784,35.33235 7.603304,36.65376 -0.371975,1.93151 -4.250212,3.24164 -19.780251,6.68211 C 40.207291,436.85452 37.613156,436.98881 36.689316,433 Z M 494.00002,330.71475 C 449.78599,319.00551 423.75318,285.48677 411.1256,224.0092 c -4.72457,-23.00169 -4.99985,-49.22968 -0.6771,-64.51445 5.60641,-19.82376 13.25297,-31.58887 28.46582,-43.79799 12.38648,-9.94081 28.13008,-17.295875 47.75236,-22.308868 19.2787,-4.925215 92.33014,-20.213133 93.82412,-19.635141 1.96596,0.760589 10.67302,32.982739 9.25765,34.259689 -0.59497,0.53678 -13.08176,3.53336 -27.74843,6.65907 -53.81917,11.46976 -66.15715,14.57209 -74.72174,18.78842 -9.53421,4.69368 -20.88966,15.68879 -24.07406,23.31014 -5.2143,12.47954 -5.5146,34.74794 -0.55128,40.8774 2.84224,3.51001 -0.64319,4.08096 71.14095,-11.65367 25.55329,-5.60112 46.7846,-9.85977 47.18069,-9.46369 1.31332,1.31333 9.8627,34.41042 9.08858,35.18453 -0.41791,0.41791 -25.95433,6.33263 -56.74761,13.14384 -54.30193,12.01112 -61.31553,13.89188 -61.31553,16.44231 0,2.46741 7.05153,20.86233 9.72378,25.36588 12.94421,21.81482 33.73399,30.31536 61.69801,25.2271 8.77793,-1.59721 73.22676,-15.59468 76.91155,-16.70421 2.15021,-0.64745 2.33333,0.87729 2.33333,19.42911 0,14.97356 -0.42703,20.24838 -1.66667,20.58713 -3.80801,1.04059 -72.9636,15.47068 -80.24488,16.744 -12.66903,2.21549 -36.05884,1.59765 -46.75512,-1.23505 z M 0,128.14265 c 0,-18.43605 0.05766118,-18.80932 2.9056244,-18.80932 1.5980934,0 10.1480936,-1.77262 19.0000006,-3.93915 15.58432,-3.81432 24.757806,-6.011488 61.427711,-14.712721 28.737204,-6.818919 49.800614,-11.94796 66.666674,-16.233658 8.8,-2.236097 19.9,-4.854597 24.66666,-5.818889 4.76667,-0.964292 21.26667,-4.829885 36.66667,-8.590208 15.4,-3.760323 31.9,-7.740897 36.66667,-8.84572 13.70055,-3.175525 14.29685,-3.616743 19.5014,-14.429468 5.49264,-11.411224 10.9608,-17.414993 20.85457,-22.897265 C 294.75456,10.320712 296.44294,10 308.70988,10 c 10.28639,0 14.67561,0.585809 19,2.535832 3.09291,1.394708 5.62347,3.196963 5.62347,4.005011 0,0.808048 -6.40144,3.266924 -14.22543,5.464168 -18.74388,5.263929 -19.73979,6.124976 -21.60732,18.681329 -2.05664,13.827929 -2.26719,12.920724 5.03482,21.694977 8.75882,10.524787 12.10455,11.821492 23.00497,8.916046 21.3198,-5.682679 23.9345,-6.266926 24.68553,-5.515903 1.48311,1.483103 -2.77317,9.511791 -8.13111,15.337867 -9.53068,10.363397 -24.8762,15.819814 -38.28013,13.611294 C 294.08997,93.128319 290.34369,91.53692 281.66273,85.320627 277.57614,82.394283 272.78268,80 271.01058,80 269.23849,80 254.78617,83.274589 238.8943,87.276867 223.00244,91.279143 181.80001,101.50713 147.33334,110.00572 54.374303,132.92702 3.5401739,145.59789 1.6666667,146.31449 0.38197061,146.80587 0,142.6412 0,128.14265 Z"
       id="path24"
       inkscape:connector-curvature="0" />
    <path
       style="fill:#1d1e33;stroke-width:1.33333337"
       d="m 160.00001,479.33333 c -0.91292,-1.1 -2.64206,-2 -3.84254,-2 -1.20046,0 -2.91114,-1.16648 -3.80152,-2.59217 -1.15522,-1.84981 -3.44269,-2.71727 -7.98738,-3.02899 l -6.36856,-0.43682 6.33333,-2.92363 c 6.24571,-2.88317 8.41675,-6.90672 4.89963,-9.08041 -0.91714,-0.56683 -0.43674,-1.8149 1.33333,-3.46398 1.52188,-1.41782 2.76704,-3.22797 2.76704,-4.02253 0,-0.94728 0.68261,-0.87813 1.98268,0.20083 1.13717,0.94376 3.41159,1.28685 5.33333,0.80453 3.21296,-0.8064 3.35066,-0.59027 3.35066,5.25941 0,5.94799 0.14988,6.16668 6,8.75446 5.47048,2.41985 7.9638,5.19597 4.66666,5.19597 -0.73333,0 -1.33333,1.24767 -1.33333,2.77261 0,2.40084 -0.54864,2.6521 -4.09185,1.87388 -3.43426,-0.75429 -4.20922,-0.44989 -4.82218,1.89407 -0.8634,3.30165 -2.14614,3.53176 -4.4193,0.79277 z M 36.689316,433 C 36.307161,431.35 34.132712,421.9 31.857205,412 16.110215,343.48989 2.7337217,287.94999 1.364021,285.39068 0.51015861,283.79521 0,265.71343 0,237.04505 v -45.79692 l 14.120011,-2.50857 c 12.069417,-2.14427 14.293253,-2.23489 15.312917,-0.62407 0.656098,1.03648 1.202093,2.6313 1.213322,3.54404 0.03073,2.4982 22.662383,100.1019 24.068407,103.80002 0.687037,1.80705 2.306322,3.20712 3.709267,3.20712 3.119381,0 7.61424,-8.17114 42.906986,-78 14.82559,-29.33334 27.94115,-54.31376 29.14569,-55.51204 1.30756,-1.30079 11.32383,-4.16495 24.85674,-7.1078 12.46667,-2.71099 24.01667,-5.24562 25.66667,-5.6325 2.30884,-0.54136 3,-0.1172 3,1.84112 0,1.39951 -0.52387,3.11455 -1.16414,3.81122 -0.64028,0.69666 -15.65904,29.92104 -33.37504,64.94306 -26.60947,52.60315 -31.97205,64.12268 -30.8374,66.2428 0.75543,1.41154 3.92419,4.61055 7.04171,7.10894 44.46957,35.638 73.40216,58.09821 77.97948,60.53504 8.63803,4.59861 43.34288,32.64933 42.02494,33.96728 C 244.31792,392.21543 190.99393,404 186.22954,404 c -1.97721,0 -6.83876,-2.98261 -12.4964,-7.66667 C 168.64005,392.11667 158.58198,383.86667 151.3819,378 c -7.20008,-5.86667 -28.7565,-23.69697 -47.90315,-39.62289 -36.535201,-30.3895 -42.434109,-34.62175 -44.866092,-32.18976 -1.560489,1.56048 -0.728344,5.55968 15.995837,76.87433 5.296213,22.58392 9.340459,41.81484 8.987212,42.73539 C 82.982002,427.39636 46.472083,436 40.299132,436 c -1.928192,0 -3.150208,-1.01557 -3.609816,-3 z M 494.00002,330.71475 C 449.78599,319.00551 423.75318,285.48677 411.1256,224.0092 c -4.72457,-23.00169 -4.99985,-49.22968 -0.6771,-64.51445 5.60641,-19.82376 13.25297,-31.58887 28.46582,-43.79799 12.38648,-9.94081 28.13008,-17.295875 47.75236,-22.308868 19.2787,-4.925215 92.33014,-20.213133 93.82412,-19.635141 1.96596,0.760589 10.67302,32.982739 9.25765,34.259689 -0.59497,0.53678 -13.08176,3.53336 -27.74843,6.65907 -53.81917,11.46976 -66.15715,14.57209 -74.72174,18.78842 -9.53421,4.69368 -20.88966,15.68879 -24.07406,23.31014 -5.2143,12.47954 -5.5146,34.74794 -0.55128,40.8774 2.84224,3.51001 -0.64319,4.08096 71.14095,-11.65367 25.55329,-5.60112 46.7846,-9.85977 47.18069,-9.46369 1.31332,1.31333 9.8627,34.41042 9.08858,35.18453 -0.41791,0.41791 -25.95433,6.33263 -56.74761,13.14384 -54.30193,12.01112 -61.31553,13.89188 -61.31553,16.44231 0,2.46741 7.05153,20.86233 9.72378,25.36588 12.94421,21.81482 33.73399,30.31536 61.69801,25.2271 8.77793,-1.59721 73.22676,-15.59468 76.91155,-16.70421 2.15021,-0.64745 2.33333,0.87729 2.33333,19.42911 0,14.97356 -0.42703,20.24838 -1.66667,20.58713 -3.80801,1.04059 -72.9636,15.47068 -80.24488,16.744 -12.66903,2.21549 -36.05884,1.59765 -46.75512,-1.23505 z"
       id="path22"
       inkscape:connector-curvature="0" />
  </g>
</svg>
