<?xml version="1.0" encoding="UTF-8" standalone="no"?>
<!-- Created with Inkscape (http://www.inkscape.org/) -->

<svg
   xmlns:dc="http://purl.org/dc/elements/1.1/"
   xmlns:cc="http://creativecommons.org/ns#"
   xmlns:rdf="http://www.w3.org/1999/02/22-rdf-syntax-ns#"
   xmlns:svg="http://www.w3.org/2000/svg"
   xmlns="http://www.w3.org/2000/svg"
   xmlns:sodipodi="http://sodipodi.sourceforge.net/DTD/sodipodi-0.dtd"
   xmlns:inkscape="http://www.inkscape.org/namespaces/inkscape"
   version="1.1"
   id="svg2"
   xml:space="preserve"
   width="404.31119"
   height="344.25867"
   viewBox="0 0 404.31119 344.25866"
   sodipodi:docname="logo_square.svg"
   inkscape:version="0.92.1 r"><metadata
     id="metadata8"><rdf:RDF><cc:Work
         rdf:about=""><dc:format>image/svg+xml</dc:format><dc:type
           rdf:resource="http://purl.org/dc/dcmitype/StillImage" /><dc:title></dc:title></cc:Work></rdf:RDF></metadata><defs
     id="defs6"><clipPath
       clipPathUnits="userSpaceOnUse"
       id="clipPath32"><path
         d="M 0,841.89 H 595.28 V 0 H 0 Z"
         id="path30"
         inkscape:connector-curvature="0" /></clipPath></defs><sodipodi:namedview
     pagecolor="#ffffff"
     bordercolor="#666666"
     borderopacity="1"
     objecttolerance="10"
     gridtolerance="10"
     guidetolerance="10"
     inkscape:pageopacity="0"
     inkscape:pageshadow="2"
     inkscape:window-width="1041"
     inkscape:window-height="928"
     id="namedview4"
     showgrid="false"
     fit-margin-top="0"
     fit-margin-left="0"
     fit-margin-right="0"
     fit-margin-bottom="0"
     inkscape:zoom="0.84096496"
     inkscape:cx="188.61845"
     inkscape:cy="-0.82799571"
     inkscape:window-x="1885"
     inkscape:window-y="65"
     inkscape:window-maximized="0"
     inkscape:current-layer="g10" /><g
     id="g10"
     inkscape:groupmode="layer"
     inkscape:label="logo square with air condi"
     transform="matrix(1.3333333,0,0,-1.3333333,-212.99133,906.34664)"><path
       d="M 462.868,421.566 H 159.834 V 679.76 h 303.034 z"
       style="fill:#231f20;fill-opacity:1;fill-rule:nonzero;stroke:none"
       id="path12"
       inkscape:connector-curvature="0" /><g
       id="g14"
       transform="translate(297.3133,584.3151)"><path
         d="m 0,0 -7.408,-48.261 35.226,7.844 z m -17.324,20.207 26.358,5.87 72.585,-98.729 -27.675,-6.163 -13.418,19.637 -51.398,-11.445 -4.43,-29.803 -26.385,-5.875 z"
         style="fill:#80cc28;fill-opacity:1;fill-rule:nonzero;stroke:none"
         id="path16"
         inkscape:connector-curvature="0" /></g><g
       id="g18"
       transform="translate(462.8677,502.2478)"><path
         d="m 0,0 -229.54,-49.611 1.545,-7.039 L 0,-7.376 Z"
         style="fill:#66aad6;fill-opacity:1;fill-rule:nonzero;stroke:none"
         id="path20"
         inkscape:connector-curvature="0" /></g><g
       id="g22"
       transform="translate(240.1284,449.8567)"><path
         d="m 0,0 13.581,-6.058 -10.244,1.782 8.968,-10.448 -12.001,8.861 -1.606,-15.553 -2.581,15.155 -9.903,-14.191 7.03,15.658 -19.77,-2.398 19.113,7.691 -14.168,11.466 14.979,-7.87 -7.425,20.05 10.815,-19.158 4.858,11.645 z"
         style="fill:#ffffff;fill-opacity:1;fill-rule:nonzero;stroke:none"
         id="path24"
         inkscape:connector-curvature="0" /></g><g
       id="g34"
       transform="translate(159.834,599.8956)"><path
         d="m 0,0 135.728,34.215 c 5.727,-6.615 14.968,-9.696 23.933,-7.127 8.901,2.551 15.086,9.971 16.498,18.538 l -20.156,-5.776 -7.9,8.05 2.114,12.144 19.582,5.611 c -5.767,5.847 -14.465,8.442 -22.915,6.02 -8.965,-2.568 -15.172,-10.076 -16.526,-18.72 L 0,20.992 Z"
         style="fill:#66aad6;fill-opacity:1;fill-rule:nonzero;stroke:none"
         id="path36"
         inkscape:connector-curvature="0" /></g><g
       id="g38"
       transform="translate(281.9945,483.7101)"><path
         d="m 0,0 -62.623,49.555 35.777,68.612 -30.599,-6.814 -35.09,-67.451 -12.653,56.82 -17.063,-3.806 V 56.949 l 17.926,-80.18 25.476,5.673 -13.099,58.824 59.378,-48.519 z"
         style="fill:#ffffff;fill-opacity:1;fill-rule:nonzero;stroke:none"
         id="path40"
         inkscape:connector-curvature="0" /></g><g
       id="g42"
       transform="translate(462.9769,543.5189)"><path
         d="m 0,0 -37.721,-8.445 c -10.23,-2.278 -18.05,-1.673 -23.434,1.821 -5.412,3.489 -9.26,10.359 -11.592,20.572 l 57.636,13.138 -4.554,20.45 -57.487,-13.019 c -1.577,9.322 -0.502,16.744 3.142,22.249 3.672,5.512 10.106,9.291 19.246,11.326 l 41.561,9.255 -4.554,20.45 -42.037,-9.361 c -19.369,-4.313 -32.552,-12.428 -39.578,-24.353 -7.019,-11.952 -8.219,-28.302 -3.592,-49.08 2.38,-10.688 5.97,-19.562 10.757,-26.567 4.814,-6.998 10.816,-12.215 18.062,-15.639 5.555,-2.683 11.231,-4.196 16.978,-4.576 5.74,-0.353 13.351,0.512 22.77,2.61 L 0,-21.464 Z"
         style="fill:#ffffff;fill-opacity:1;fill-rule:nonzero;stroke:none"
         id="path44"
         inkscape:connector-curvature="0" /></g></g></svg>